<?xml version="1.0" encoding="UTF-8"?>
<svg xmlns="http://www.w3.org/2000/svg" viewBox="0 0 1080 1080">
  <rect width="1080" height="1080" rx="40.03" ry="40.03" fill="#fff"/>
  <g>
    <path fill="#5f5cfc" d="M966.24,685.49v113.9c0,2.73-1.83,5.12-4.47,5.83l-164.38,44.08c-5.96,1.6-5.96,10.05,0,11.65l110.45,29.62c6.81,1.83,5.49,11.86-1.56,11.86H173.72c-7.05,0-8.37-10.03-1.56-11.86l110.45-29.62c5.96-1.6,5.96-10.05,0-11.65l-164.38-44.08c-2.64-.71-4.47-3.1-4.47-5.83v-113.9c0-3.97,3.76-6.85,7.59-5.83l417.08,111.85c1.02.27,2.1.27,3.12,0l417.08-111.85c3.83-1.03,7.59,1.86,7.59,5.83ZM957.62,883.36c.29.08.59.16.87.26,3.84,1.22,7.75-1.75,7.75-5.78v-45.41c0-3.97-3.76-6.85-7.59-5.83l-84.62,22.69c-5.96,1.6-5.96,10.05,0,11.65l83.59,22.42ZM113.76,878.14c0,4.15,4.11,7.08,8.02,5.69.49-.17.99-.33,1.5-.47l83.59-22.42c5.96-1.6,5.96-10.05,0-11.65l-85.51-22.93c-3.83-1.03-7.59,1.86-7.59,5.83v45.95ZM429.18,741.66l109.71,29.42c1.02.27,2.1.27,3.12,0l108.81-29.18c2.64-.71,4.47-3.1,4.47-5.83V60.39c0-4.54-4.83-7.45-8.84-5.34l-218.51,115.19c-1.98,1.04-3.22,3.1-3.22,5.34v560.25c0,2.73,1.83,5.12,4.47,5.83ZM113.76,657.91c.15,0,.3-.02.45-.02,1.71,0,3.42.22,5.11.67l217.42,58.3c3.83,1.03,7.59-1.86,7.59-5.83V175.58c0-2.24-1.24-4.29-3.22-5.34L122.6,55.05c-4.02-2.12-8.84.8-8.84,5.34v597.52ZM735.66,711.28c0,3.97,3.76,6.85,7.59,5.83l218.32-58.54s.03,0,.05-.01c2.69-.71,4.62-3.08,4.62-5.86V197.63c0-3.33-2.7-6.03-6.03-6.03h-218.51c-3.33,0-6.03,2.7-6.03,6.03v513.65ZM960.21,50.39h-218.51c-3.33,0-6.03,2.7-6.03,6.03v109.41c0,3.33,2.7,6.03,6.03,6.03h218.51c3.33,0,6.03-2.7,6.03-6.03V56.42c0-3.33-2.7-6.03-6.03-6.03Z"/>
    <g>
      <path fill="#5f5cfc" d="M130.93,949.99h15.81l21.59,63.13,21.48-63.13h15.81l12.86,80.83h-16.28l-7.79-53.45-18.41,53.45h-15.81l-18.64-53.81-7.79,53.81h-15.69l12.86-80.83Z"/>
      <path fill="#5f5cfc" d="M298.92,949.99h16.17v80.83h-16.17v-80.83Z"/>
      <path fill="#5f5cfc" d="M430.46,983.97c15.1,5.07,22.77,11.33,22.77,23.72,0,13.81-12.27,24.31-28.32,24.31-11.8,0-22.77-4.48-31.03-12.74l8.85-10.86c6.49,6.49,13.81,9.56,22.18,9.56,7.43,0,12.39-3.89,12.39-9.68,0-5.43-4.96-7.91-16.17-11.56-16.05-5.43-24.31-11.33-24.31-24.66s11.8-23.25,27.02-23.25c9.91,0,19.23,3.89,26.67,11.09l-9.2,10.74c-5.78-5.31-11.09-7.79-17.35-7.79s-11.21,3.07-11.21,8.61c0,5.9,5.43,8.5,17.7,12.51Z"/>
      <path fill="#5f5cfc" d="M562.82,983.97c15.1,5.07,22.77,11.33,22.77,23.72,0,13.81-12.27,24.31-28.32,24.31-11.8,0-22.77-4.48-31.03-12.74l8.85-10.86c6.49,6.49,13.81,9.56,22.18,9.56,7.43,0,12.39-3.89,12.39-9.68,0-5.43-4.96-7.91-16.17-11.56-16.05-5.43-24.31-11.33-24.31-24.66s11.8-23.25,27.02-23.25c9.91,0,19.23,3.89,26.67,11.09l-9.2,10.74c-5.78-5.31-11.09-7.79-17.34-7.79s-11.21,3.07-11.21,8.61c0,5.9,5.43,8.5,17.7,12.51Z"/>
      <path fill="#5f5cfc" d="M664.86,949.99h16.17v66.43h33.98v14.4h-50.15v-80.83Z"/>
      <path fill="#5f5cfc" d="M792.86,949.99h16.17v80.83h-16.17v-80.83Z"/>
      <path fill="#5f5cfc" d="M886.4,1030.82l28.79-42.48-25.84-38.35h18.53l17.11,25.37,17.23-25.37h17.58l-26.08,38.35,28.79,42.48h-18.64l-19.82-29.38-19.94,29.38h-17.7Z"/>
    </g>
  </g>
</svg>
